<svg width="7" height="12" viewBox="0 0 7 12" fill="none" xmlns="http://www.w3.org/2000/svg">
<path d="M6.28977 11.29C6.38247 11.1975 6.45602 11.0876 6.5062 10.9666C6.55638 10.8456 6.58221 10.716 6.58221 10.585C6.58221 10.454 6.55638 10.3243 6.5062 10.2034C6.45602 10.0824 6.38247 9.9725 6.28977 9.87999L2.41977 5.99999L6.29977 2.11999C6.39235 2.02741 6.46579 1.9175 6.51589 1.79653C6.566 1.67557 6.59179 1.54592 6.59179 1.41499C6.59179 1.28406 6.566 1.15441 6.51589 1.03345C6.46579 0.912482 6.39235 0.802571 6.29977 0.70999C6.20719 0.617408 6.09728 0.543968 5.97631 0.493863C5.85535 0.443758 5.7257 0.417969 5.59477 0.417969C5.46384 0.417969 5.33419 0.443758 5.21323 0.493863C5.09226 0.543968 4.98235 0.617408 4.88977 0.70999L0.299768 5.29999C0.207065 5.3925 0.133517 5.50239 0.0833359 5.62337C0.0331544 5.74434 0.00732422 5.87402 0.00732422 6.00499C0.00732422 6.13596 0.0331544 6.26564 0.0833359 6.38661C0.133517 6.50759 0.207065 6.61748 0.299768 6.70999L4.88977 11.3C5.26977 11.68 5.89977 11.68 6.28977 11.29Z" fill="#FFB000"/>
</svg>
