<svg width="20" height="21" viewBox="0 0 20 21" fill="none" xmlns="http://www.w3.org/2000/svg">
<path d="M11.6634 19.7665L17.3379 16.614C17.9437 16.2775 18.246 16.1092 18.4662 15.8738C18.6611 15.6655 18.8085 15.4202 18.8985 15.1536C19 14.853 19 14.5172 19 13.8473V7.53311C19 6.8632 19 6.52737 18.8985 6.22681C18.8085 5.96025 18.6611 5.71471 18.4662 5.50643C18.2469 5.27204 17.9453 5.10448 17.3448 4.77086L11.6624 1.61402C11.0566 1.27749 10.7543 1.10956 10.4323 1.0437C10.1474 0.985432 9.85287 0.985432 9.56796 1.0437C9.24595 1.10956 8.94267 1.27749 8.33691 1.61402L2.66132 4.76709C2.05627 5.10322 1.75398 5.27116 1.53383 5.50643C1.33893 5.71471 1.19174 5.96025 1.10173 6.22681C1 6.52808 1 6.86479 1 7.53785V13.8428C1 14.5159 1 14.8523 1.10173 15.1536C1.19174 15.4202 1.33893 15.6655 1.53383 15.8738C1.75411 16.1092 2.05662 16.2775 2.66238 16.614L8.33691 19.7665C8.94266 20.103 9.24596 20.271 9.56796 20.3369C9.85287 20.3952 10.1474 20.3952 10.4323 20.3369C10.7543 20.271 11.0576 20.103 11.6634 19.7665Z" stroke="#202224" stroke-linecap="round" stroke-linejoin="round"/>
<path d="M6.88227 10.6902C6.88227 12.347 8.27813 13.6902 10 13.6902C11.7219 13.6902 13.1177 12.347 13.1177 10.6902C13.1177 9.03334 11.7219 7.69019 10 7.69019C8.27813 7.69019 6.88227 9.03334 6.88227 10.6902Z" stroke="#202224" stroke-linecap="round" stroke-linejoin="round"/>
</svg>
